<?xml version="1.0" encoding="utf-8"?>
<svg xmlns="http://www.w3.org/2000/svg" xmlns:xlink="http://www.w3.org/1999/xlink" version= "1.1" width="1280px" height="736px" viewBox="0 0 1280 736">
<rect x="0" y="0" width="1280" height="736" fill="rgb(255,255,255)"/>
<g id="layer1">
<g style="fill:rgb(255,255,255); fill-opacity:1.0; stroke-linejoin: miter">
<path d="M713.67847,139.1991L713.40735,139.05711Q641.75134,99.46147,557.6759,273.6891Q524.42865,339.57144,502.15802,446.8318Q490.36697,513.8839,503.99466,575.59503Q508.40027,496.5073,526.03375,438.25998Q533.6057,412.1135,549.6083,369.81412L583.3461,285.151Q590.8997,266.29755,603.13654,239.94823Q633.6091,177.0423,658.84393,155.56056Q669.959,145.46843,681.5751,141.55434L692.19836,139.47168Q697.51,138.76549,712.8795,140.28139L713.67847,139.1991"/>
</g>
<g style="fill:rgb(255,255,255); fill-opacity:1.0; stroke-linejoin: miter">
<path d="M499.51877,315.22836L499.65683,315.3414L550.5235,347.57452Q557.7588,352.2118,570.8635,359.24Q597.0476,372.41266,614.35474,376.02393Q660.2092,386.75616,709.3958,365.0492Q765.6963,339.41098,772.0382,296.30725Q777.4118,255.39215,728.0257,214.22879Q683.0117,179.30193,620.03076,166.5721Q575.2251,158.09671,543.03235,182.24034Q567.4436,174.06245,583.19116,173.81618Q600.5692,172.99113,625.9394,180.78043Q694.0911,203.66562,731.568,241.97302Q758.6636,268.90375,753.11664,299.235Q743.7758,329.75165,703.7129,347.7644Q655.1222,368.00507,617.729,360.5075Q601.24615,357.43744,585.6451,351.3529L568.2955,344.02283L525.16315,323.64172Q505.9004,315.41174,499.51877,315.22836"/>
</g>
<g style="fill:rgb(255,255,255); fill-opacity:1.0; stroke-linejoin: miter">
<path d="M483.66852,310.78787L483.81,310.90216Q521.81354,334.5073,529.22345,340.17688Q544.38525,351.7214,549.5823,358.98898Q554.7849,365.447,560.3604,376.93536Q583.4007,431.84802,593.1802,450.71417Q606.0045,475.9459,615.4447,491.7235Q645.07825,534.8138,668.28625,553.31177Q715.42505,591.35535,745.8772,558.7055Q763.8142,536.6307,768.88086,499.3552Q772.91296,473.11853,759.1449,449.11847Q770.35736,476.9818,743.982,525.15106Q733.6466,542.84247,723.517,547.5908Q714.0681,550.3262,705.3612,544.8429Q687.34827,534.2461,667.4648,506.19037L620.1457,433.64587L581.05817,365.78107Q574.7849,355.7382,568.02655,348.69107Q558.08167,336.40247,531.23865,324.03635Q511.36423,315.7983,499.0407,312.81393L485.7188,309.55447Q484.93414,309.3799,483.66852,310.78787"/>
</g>
<g style="fill:rgb(255,255,255); fill-opacity:1.0; stroke-linejoin: miter">
<path d="M748.2407,164.01373L748.0682,163.98738Q684.70715,159.83008,652.4162,195.48708Q646.73145,201.5554,640.4759,210.47803Q631.2002,226.74663,624.93005,241.93372Q614.7261,266.65045,608.5782,286.42426Q604.78955,297.7469,598.44336,324.36688Q603.967,315.07507,634.8704,254.41714L644.934,236.3555Q663.6696,206.00548,672.0625,198.038Q680.44385,188.55565,697.64886,180.53506Q709.7148,174.88217,745.60925,165.7553Q747.7403,165.35956,748.2407,164.01373"/>
</g>
<g style="fill:rgb(255,255,255); fill-opacity:1.0; stroke-linejoin: miter">
<path d="M447.871,358.30414L447.89084,358.4816Q459.5455,410.20578,480.93488,439.64764Q501.17,467.60086,536.65814,482.96664Q584.4906,498.59387,628.5027,492.22296Q645.55237,489.22333,660.0053,480.77216Q664.59564,478.3341,672.25366,472.34708L689.4144,457.51105Q654.2343,478.1632,623.167,478.16803Q581.6034,477.65375,537.04926,457.97772Q509.29144,446.60358,492.02063,425.99835Q487.20386,420.66092,479.09262,408.68616Q475.01675,403.13455,451.5118,361.87292Q449.17865,357.53958,447.871,358.30414"/>
</g>
<g style="fill:rgb(0,0,0); fill-opacity:1.0; stroke-linejoin: miter">
<path d="M848.5666,-435.94745L848.5519,-435.9129Q847.84424,-433.72906,846.66327,-427.72238Q843.64923,-411.9745,842.00464,-402.97342L835.17596,-368.03143Q831.40576,-347.57642,831.15186,-344.27545Q830.7415,-339.50278,831.102,-337.93994Q831.2197,-336.35422,832.8075,-332.63715Q833.0343,-332.37268,833.2647,-334.31723Q835.84265,-337.09875,837.3054,-340.52374Q838.476,-343.78357,838.4351,-344.6153Q838.6044,-345.1132,845.8104,-402.95364Q846.50006,-408.63858,848.22565,-429.33954Q848.69684,-433.7849,849.01465,-435.52386Q849.0763,-435.68723,848.5666,-435.94745 Z"/>
</g>
<g style="fill:rgb(255,255,255); fill-opacity:1.0; stroke-linejoin: miter">
<path d="M634.695,183.33217C634.5299,183.33217,634.3755,183.41367,634.2823,183.54996Q619.2545,205.5281,602.6865,239.73026L602.68304,239.73763Q590.4408,266.0986,582.882,284.96506L582.88165,284.9659L560.75446,340.49387C560.6567,340.73917,560.76654,341.0182,561.0053,341.131L568.08185,344.47488L568.1009,344.4834L585.4505,351.81348L585.4634,351.81873Q601.10834,357.92035,617.63745,360.99905L617.6372,360.99905Q627.79016,363.0341,638.76166,363.0341Q668.3561,363.0341,703.90515,348.22595L703.9179,348.22043Q744.18756,330.11472,753.5947,299.38132L753.60846,299.32492Q759.2023,268.73752,731.9255,241.62337L731.9254,241.62337Q707.84045,217.00461,671.1317,198.74803C671.08496,198.72478,671.03485,198.70901,670.9832,198.70126L670.9765,198.70026C670.9517,198.69655,670.92694,198.69472,670.9023,198.69472C670.7673,198.69472,670.6367,198.74947,670.54175,198.84837Q662.028,207.71283,644.50854,236.09285L644.49725,236.11214L634.43365,254.17378L634.4249,254.19017Q607.323,307.38638,599.75085,321.05817Q605.51886,297.14297,609.05237,286.58292L609.05566,286.5727Q615.19696,266.82016,625.3922,242.12451L625.3922,242.12453Q631.64264,226.98529,640.8878,210.76506L640.8853,210.76506Q647.1207,201.87119,652.78107,195.8289L652.7868,195.82271Q654.3216,194.12793,655.9273,192.52426L655.9207,192.52426C656.0358,192.44554,656.11597,192.32007,656.1346,192.17505C656.16296,191.95406,656.0417,191.74097,655.83716,191.65251Q645.7693,187.2979,634.8712,183.3619C634.8168,183.34222,634.7593,183.33217,634.70135,183.33217 Z"/>
</g>
</g>
<g id="layer2">
</g>
</svg>