<?xml version="1.0" encoding="utf-8"?>
<!-- Generator: Adobe Illustrator 23.1.0, SVG Export Plug-In . SVG Version: 6.00 Build 0)  -->
<svg version="1.1" xmlns="http://www.w3.org/2000/svg" xmlns:xlink="http://www.w3.org/1999/xlink" x="0px" y="0px"
	 viewBox="0 0 1080 1080" style="enable-background:new 0 0 1080 1080;" xml:space="preserve">
<style type="text/css">
	.st0{display:none;}
	.st1{display:inline;fill:#007351;}
	.st2{fill:#FFFFFF;}
</style>
<g id="Background" class="st0">
	<rect class="st1" width="1080" height="1080"/>
</g>
<g id="Layer_1">
	<g>
		<path class="st2" d="M442.3,386.8c-3.9,12.5,4.3,37.7,21.7,73.1c-36.1-32.9-46.4-62.3-40.9-88.3c-18-15.9-35.6-37.2-55.8-74
			c-68.8,146,84.6,167.2,108,236.7c-84.5-66.7-242.8-71.8-107.6-299.6c64.3,144.2,167.7,141.5,203,262.8
			C513,428.3,475.6,410.7,442.3,386.8z"/>
		<path class="st2" d="M607.9,391.2c-2.8,0.9-5.6,5.3-7.4,7.5c-7.4,8.9-13.2,18.9-17.3,29.7c-5.4,14.4-7.8,29.8-6.8,45.2
			c1.4,22.8,10.4,47,28.9,63.8c18.3,16.6,44.8,25.5,57.5,45.9c-1.7-10.1-8.3-19.5-16-27.4c-7.7-7.9-16.6-14.7-24.5-22.4
			c-13.7-13.3-24.6-29.5-29.1-46.8c-5.5-21.7-0.4-43.9,11.5-61.1c34.6,88.7,117.8,100.3,143.5,167.4
			C752.4,525.2,639.9,497.4,607.9,391.2z"/>
		<path class="st2" d="M788.9,753.6c2.3,3.9-9,7-11.2,7.7c-22,6.9-45,3.4-67-1.7c-0.1,0-0.2-0.1-0.3-0.1c-0.7-0.2-1.3-0.3-2-0.5
			c-21.3-5.1-42-12.4-62.7-19.4c-47-16-114.3-38.8-159.2-6.1c-27.9,20.3-37.4,50.9-33,89.7c0.7,6.4,1.3,13.6,2.5,22
			c-25.6-40.1-31-89.1,0.4-130.4c40.1-52.6,115-28.8,166.9-11.3c19.9,6.7,39.8,13.6,59.3,21.6c10.7,4.4,21.8,8.7,33,12.1
			c9.1,2.7,21.1,7.4,30.6,4.3c1.1-0.4,2.3-1,2.7-2.1c0.4-1.1-0.2-2.3-0.8-3.3c-10.6-18-22-36.3-29.9-56c-8.6-21.3-12.4-36.6-14-65.6
			c-0.9-17.1,2.6-28.5-16.9-49.5c-10.8-11.6-25-19.9-34.8-32.5c64.9,30.6,76.3,46.7,80,93C735.6,666.6,756.6,699.7,788.9,753.6z"/>
		<g>
			<path class="st2" d="M424.3,629.2c-11.5,16-33.8,19.6-49.8,8.1c-1.6-1.1-3-2.3-4.4-3.7c17.6,8.8,39.1,1.7,47.9-16
				c6.9-13.7,4.2-30.4-6.7-41.2c17.6,8.8,24.8,30.2,16,47.9C426.4,626,425.4,627.6,424.3,629.2L424.3,629.2z"/>
			<path class="st2" d="M346,703c-23.4-23.4-22.8-61.8,1.2-85.9c2.3-2.3,4.8-4.5,7.5-6.4c-17.5,24-21.6,61.8-0.5,82.9
				c21.1,21.1,60.1,18.2,84.1,0.6c-1.9,2.7-4.1,5.2-6.4,7.5C407.9,725.8,369.4,726.4,346,703z"/>
			<path class="st2" d="M429.3,543.9C343.4,532.7,256.4,615,304.5,708C285,635.9,313.6,565.1,429.3,543.9z"/>
		</g>
	</g>
</g>
</svg>
