<svg id="Layer_1" data-name="Layer 1" xmlns="http://www.w3.org/2000/svg" viewBox="0 0 1080 1080"><defs><style>.cls-1{fill:#fff;}</style></defs><path class="cls-1" d="M577.45,432.22c-38.7-60.66-108.17-94.65-154.28-149.89a319.81,319.81,0,0,1-22.65-31.13c-7-10.8-12.62-23.21-20.38-33.4-4.21,2.32-7.82,10.47-10.35,14.69a199.07,199.07,0,0,0-9.4,17.59,204.79,204.79,0,0,0-13.2,36.66,201.67,201.67,0,0,0-4.67,76.5c5,37.16,21.69,74.21,52,96.26,29.86,21.71,71.26,28.27,93.26,57.91-3.9-16.12-15.1-29.57-27.78-40.26S432.94,458,419.88,447.74c-22.51-17.64-41.18-40.95-50.09-68.12-11.15-34-6.09-72.22,9.8-104.32a443.55,443.55,0,0,0,55.72,73c3.76,4,7.68,8,9.83,13.06,3.83,8.94,1.45,19.14,1.26,28.86-.32,15.43,5.09,30.53,12.92,43.82s18,25,28.16,36.64c-.28-14.28-6.19-27.75-10.89-41.24-3.95-11.32-7-25.81-5.65-37.82,2.67-23.48,17.71-7.31,28.73,1.23,21.75,16.84,38.5,27,55.29,43.54,12.67,12.45,25.11,26.68,28.19,44.17a28,28,0,0,0,5.5-16,36.92,36.92,0,0,0-.66-8.79C586.33,447.31,582.11,439.52,577.45,432.22Z"/><path class="cls-1" d="M758.11,550.21a21.09,21.09,0,0,0,.12-5.33c-.55-5.3-2.78-10.51-5.34-15.5-21.2-41.37-63.9-71-90.22-110.12A226.44,226.44,0,0,1,650,397.64c-3.84-7.38-6.7-15.53-11.07-22.65-2.86.81-5.7,5.19-7.59,7.36a103.22,103.22,0,0,0-17.94,29.32,108.76,108.76,0,0,0-7.77,45c.9,22.82,9.39,47.17,27.58,64.39,17.91,17,44.21,26.44,56.56,47.08-1.51-10.14-7.9-19.67-15.42-27.75s-16.27-15.08-24.05-22.93c-13.43-13.55-24-30-28.09-47.36-5.08-21.8.55-43.89,12.8-60.89,1.2,2.26,9,17.06,10.22,19.14,5.51,9.5,10.81,18.89,18.71,26.63,23.69,23.21,51,42.64,73.53,67.08,6.86,7.45,12.75,16.49,15.69,26.25a19.85,19.85,0,0,1,.61,2.75,26.37,26.37,0,0,1-.19,7.93A14.48,14.48,0,0,0,758.11,550.21Z"/><path class="cls-1" d="M692.18,515.16c11.28,2.73,21.84,10.43,30.47,18.73,14.54,14,24.73,31.05,32.12,48.37,6.36,14.88,9.58,31,16.54,45.64,8.08,17,21,30.82,33.33,44.79,10.29,11.68,24.91,30.21,29.12,46.42,1.51,5.84-7,8.63-10.94,10.45-27.89,13.05-59.33,16.64-89.71,12.85-26.56-3.32-52.45-11.39-78.21-18.33-1.15-.31-2.31-.63-3.47-.93-6.41-1.72-12.85-3.36-19.32-4.86-38.2-8.83-85.1-17.42-118.92,8.3a86.21,86.21,0,0,0-19,20.47c-23.11,34.27,9.93,98.54,9.93,98.54-7.85-1-40.67-38.87-42.82-80.86-1.83-35.84,20-56.4,26-61.83,27.43-24.78,69.21-32.27,111.44-27.27,27.16,3.22,53.17,12.4,78.84,21.44C707,707.47,736.12,719.76,768,714.54c3.27-.54,31.73-4.62,31.11-7.8C796.49,693.19,784,685,775.21,675.47a137.26,137.26,0,0,1-26-40.4c-6.59-15.92-9.44-33.1-16-49-1.6-3.87-3.3-7.7-5-11.55C716.36,547,702.75,526.75,672.77,516c-1.06-.39.82-.82,1-.89a24.13,24.13,0,0,1,5-.81A37.89,37.89,0,0,1,692.18,515.16Z"/><path class="cls-1" d="M459.11,559.31c-3.41-11,.71-20.64-5.65-35.63a53.37,53.37,0,0,0-4.71-8.74c-.61-1-1.32-1.91-2-2.84a42.76,42.76,0,0,0-8-8,22.45,22.45,0,0,0-5.33-3.35c-1.57-.64-.3,1.16.06,1.79.66,1.14,1.38,2.25,2.08,3.36,2.87,4.49,5.21,9,5.24,14.47,0,3-.64,6.37-2.67,8.73s-5,3-7.8,3.08c-5,.21-9.87,0-14.84.93a96,96,0,0,0-19.86,6.29,118.59,118.59,0,0,0-27,15.86,99.09,99.09,0,0,0-30.66,40.06c-19.19,46.65,5.69,89.09,8.47,93.65-2.68-8.88-14.24-50.52,9.12-87.9,22-35.24,68.61-56.36,86.4-44.24,8.22,5.6,7,16.79,20,24.29a45.62,45.62,0,0,0,28,5.75C468.83,577.91,461.65,567.47,459.11,559.31Z"/><path class="cls-1" d="M440.05,612.8a29.57,29.57,0,0,1-40.66,9.77,28.48,28.48,0,0,1-3.83-2.79A29.57,29.57,0,0,0,426.06,570a29.57,29.57,0,0,1,14,42.81Z"/><path class="cls-1" d="M371.66,676.68c-18-20.67-15.27-52.42,6-70.92a52.1,52.1,0,0,1,6.57-4.87c-15.89,18.81-21.48,49.84-5.27,68.48s48.67,18.52,69.51,5.41a53.47,53.47,0,0,1-5.74,5.83C421.46,699.11,389.64,697.36,371.66,676.68Z"/></svg>