<svg id="Layer_1" data-name="Layer 1" xmlns="http://www.w3.org/2000/svg" viewBox="0 0 1080 1080"><defs><style>.cls-1{fill:#fff;}</style></defs><title>Agrian</title><path class="cls-1" d="M428.69,386.76c-3.94,12.47,4.25,37.73,21.7,73.09C414.24,427,404,397.59,409.49,371.56c-18-15.88-35.63-37.22-55.78-74-68.82,146.05,84.61,167.19,108,236.74C377.18,467.64,218.89,462.49,354,234.72,418.31,379,521.75,376.21,557,497.48,499.39,428.26,462,410.65,428.69,386.76Z"/><path class="cls-1" d="M607.93,391.2c-2.84.86-5.59,5.3-7.44,7.51a103.5,103.5,0,0,0-17.32,29.69,108.77,108.77,0,0,0-6.82,45.15c1.37,22.8,10.37,47,28.92,63.8C623.53,554,650,562.86,662.8,583.24c-1.72-10.11-8.31-19.5-16-27.42s-16.59-14.74-24.53-22.42c-13.71-13.27-24.62-29.5-29.08-46.77-5.53-21.68-.36-43.89,11.53-61.14,34.61,88.66,117.77,100.34,143.48,167.38C752.39,525.17,639.93,497.4,607.93,391.2Z"/><path class="cls-1" d="M788.92,753.64c2.34,3.92-9,7-11.22,7.67-22,6.92-45,3.44-67-1.67l-.34-.08-2-.47c-21.31-5.12-42-12.4-62.74-19.45-47-16-114.26-38.76-159.18-6.06-27.92,20.31-37.43,50.85-33,89.7.72,6.4,1.26,13.57,2.51,22-25.65-40.11-31-89.15.4-130.36,40.08-52.62,115-28.78,166.89-11.32,19.95,6.71,39.85,13.63,59.35,21.57,10.7,4.36,21.79,8.71,33,12.06,9.09,2.71,21.15,7.4,30.62,4.33,1.13-.37,2.34-.95,2.7-2.08s-.25-2.26-.84-3.25c-10.58-18-22-36.35-29.93-56-8.64-21.34-12.38-36.62-14-65.58-.94-17.07,2.56-28.54-16.94-49.54-10.79-11.63-25-19.9-34.81-32.46,64.93,30.62,76.27,46.68,80,93C735.61,666.56,756.6,699.69,788.92,753.64Z"/><path class="cls-1" d="M424.29,629.19a35.66,35.66,0,0,1-49.79,8.13,34.24,34.24,0,0,1-4.36-3.7,35.68,35.68,0,0,0,41.14-57.18,35.63,35.63,0,0,1,13,52.76Z"/><path class="cls-1" d="M346,703c-23.41-23.35-22.81-61.8,1.22-85.86a62.66,62.66,0,0,1,7.49-6.42c-17.53,24-21.63,61.8-.54,82.87s60.15,18.17,84.12.62a64.61,64.61,0,0,1-6.42,7.51C407.87,725.79,369.42,726.38,346,703Z"/><path class="cls-1" d="M429.25,543.93c-85.8-11.24-172.8,71.08-124.79,164.12C285.05,635.89,313.59,565.12,429.25,543.93Z"/></svg>